<mxfile host="65bd71144e">
    <diagram id="HIP3nbAZw_EuaXWnEj3U" name="Page-1">
        <mxGraphModel dx="606" dy="563" grid="1" gridSize="10" guides="1" tooltips="1" connect="1" arrows="1" fold="1" page="1" pageScale="1" pageWidth="850" pageHeight="1100" math="0" shadow="0">
            <root>
                <mxCell id="0"/>
                <mxCell id="1" parent="0"/>
                <mxCell id="7" value="http://ics2o.mths.ca" style="swimlane;whiteSpace=wrap;html=1;" parent="1" vertex="1">
                    <mxGeometry x="40" y="40" width="760" height="480" as="geometry"/>
                </mxCell>
                <mxCell id="8" value="Division" style="whiteSpace=wrap;html=1;" vertex="1" parent="7">
                    <mxGeometry y="20" width="760" height="40" as="geometry"/>
                </mxCell>
                <mxCell id="9" value="&lt;font style=&quot;font-size: 15px;&quot;&gt;Enter the two Numbers&lt;/font&gt;" style="text;html=1;align=center;verticalAlign=middle;resizable=0;points=[];autosize=1;strokeColor=none;fillColor=none;" vertex="1" parent="7">
                    <mxGeometry y="70" width="170" height="30" as="geometry"/>
                </mxCell>
                <mxCell id="11" value="&lt;font style=&quot;font-size: 12px;&quot;&gt;Number 1&lt;/font&gt;" style="text;html=1;align=center;verticalAlign=middle;resizable=0;points=[];autosize=1;strokeColor=none;fillColor=none;fontSize=15;" vertex="1" parent="7">
                    <mxGeometry y="115" width="80" height="30" as="geometry"/>
                </mxCell>
                <mxCell id="12" value="Number 2" style="text;html=1;align=center;verticalAlign=middle;resizable=0;points=[];autosize=1;strokeColor=none;fillColor=none;fontSize=12;" vertex="1" parent="7">
                    <mxGeometry y="190" width="80" height="30" as="geometry"/>
                </mxCell>
                <mxCell id="13" value="" style="rounded=1;whiteSpace=wrap;html=1;fontSize=12;" vertex="1" parent="7">
                    <mxGeometry x="20" y="150" width="110" height="20" as="geometry"/>
                </mxCell>
                <mxCell id="14" value="" style="rounded=1;whiteSpace=wrap;html=1;fontSize=12;" vertex="1" parent="7">
                    <mxGeometry x="20" y="220" width="110" height="20" as="geometry"/>
                </mxCell>
                <mxCell id="15" value="Calculate" style="rounded=1;whiteSpace=wrap;html=1;fontSize=12;" vertex="1" parent="7">
                    <mxGeometry x="10" y="260" width="130" height="30" as="geometry"/>
                </mxCell>
                <mxCell id="17" value="" style="shape=image;verticalLabelPosition=bottom;labelBackgroundColor=default;verticalAlign=top;aspect=fixed;imageAspect=0;image=data:image/png,iVBORw0KGgoAAAANSUhEUgAAATgAAAChCAMAAABkv1NnAAACYVBMVEX///8WcSDwuxj5AQEfJ43/AAD85MzvtwAAAAAAYwAAaAAAaQD9xsbIyd766sgAB4YAAIUMbxkAbA/wAwPB0sPqBAT1AgKBp4RilGabuJ3rBARKh0/59u/Q3NHjBQXZBwfwphj84sv8vLzLCgrwoRjECwuyDw+MjrvxwT722JP+3d3+5OT/7NOsw63dBgbwrBjwjhhPU54LGIl7r+nl7/vS5Pi7DQ2SFRWnERHH3fb828iqEBDy9/2cEhLwmxjICgqnAACPAAAqeDLn5+eSve38zMKkx/AAXACaAAB1AACJAAC41PPlzrdYjlzj6uPL2czb29vGy8unsbHMt6OpmYpVTUZvm3I9gELJmwDfrACgoqLc1dAaBQW5np5vEBAAAHMzAADje3vcKirRwbKyq6SOh4Hm3dbEu7S1pJPWv6ktKSWlkoB0cnGDd2wYFhSNro9BTkbTn6DOenvlv8CiPj7LYmK4khx3VgB4aUL8wwB8f4Wsj1S+nkyHZwCCajCUh2bKRUWWelWJahHRqD5fOgCjegB+WwCnrLbHKirg0KvHqFWniED9np5IMwC+q37Aenp6WVmUfHwqJA2+nW6oeilAPUHSjRy1fBidZhEACiBiRACgagZCIgDXgQYuKB/lpDnJoWvCcwBpTSVVMgAmFQCzfUVZHwDtRkZdRS97QACvYQDEiznjfABuPj5hS0kAFQ64k46JPT0qL3afXV17fZVYW4QpLW48AAAAAD5rb3eMKCg1O0ilSUlPcoyft85vlLZDJygeJi4AAFg0SmAAADPLvJpoKipfYo1CUF8IDUFefqH7BRpKAAAbjUlEQVR4nO2djV8TV7rHEyLJJHG3TQKpYExMKWzvOmBW24DhnRF5acCZhCgEoa4EEl4iImpbba374tLWy1rbYq3Wdu3uvbvdu7uyxV2vrdVru3vX27/qnpeZyTmTCckEEGv4+RHycmYy58vznOc5bxOdbvXFr8E5C0HCyAY5DeIF8QE3zoa5db2U75dGvHH8IGo0BjfA5axR1iiSGzQaxzfA5ayYEfCCbVvIu2FxWuQCvLywmRsED0aErOU3JIoLApOL6bDpxdb7ar5PSgBg4QadAH+PIlcNjQ1uuOwycsVjgA8niG0b/BWHLwCCwQ2XzSwUDBKcLupFPsqNg6c8yuZAW7feF/cYixsBvIxsWNDBB2OhBtDWjQuI34bBLacoDAowFRHiEBUfgsR0fB+wN2N0vS/ucRYfx+DYBLQ14yBKS1Bo9cY2QsNy4kSTY/si0OSgwwbj4DWpB7ahTBLGMTnvBPJP9BD83+CWVaOizYWZICuhM06CwBAfN8bzG2Gq7smtXFtvDoVKDuZ1DY9AU5gcm2SYSBCj83K6QWSJY/mcsNpszYWcq81uzk6upMP+uJJriGFvZY3ePiaByY2NYMsbzON81Wa93role7k2m15v2ZalUAk42WNLTvZWIxtk5JYOKpFHZIXcciEHuelt9uXJlVjgyexbtV/GoxFJLihjCw6mpcC91SWU0k9VjaqanVybHRWzWZbz1hLxZI8vOdhVxeQmk2Izh7qsSpV0WElZLOaeaqoAtjdEbrnKuvQ2qVxHZnIlHVIhe1ueFVtzxWU7O4rAhdVbN8kEUrJZO7YQVd9vlYhYnlnu83qs0vG2zOB67fLJDuRXrbUXL3toGHlphsYtHRw0hw7C6rZJrjq9/Af2YFfVt7mWKdRrw+Tsjy03nS5JBgVjOEMCpwoOGAQR97YhZ7Xps33gVkTOXL1soV5swNZcEr51UsrkoPq0WJyezhggOZt+OUPC6gHnMpdlKdRrsWUJIOuukZWAo1rvbVZ7DtxgO5fF3qB67Xb7Y80NDYnICjWoF8oITm8h27mcuAFy2ewNqlf/eHPDg5dSE5epUGZwerMSllzf3pISKc0tKUmjQL2As8P96R+sPCxDMUWJR4Oc8NWMYyMkOJvNRoKz4/SjpLp6C3rdXgafHACP7RazmJpMmy0gJNgOVFdvq64uw3G1Qz55dY/egmTV26uRAe+vRicAh5C5jau6TS8VI16urgYnQH9CUOQZGyxhP7g83NVRjPUGR2Kx2EgwkbEMCe7gwYOU/eGErMciZnLWMvhETDpEOtP4qd1ysMRsFd8y47d6t3RYiT+EBbWZz0il7ClwrmeIglZrCt1B6ZPNOlebeGU28yPo504cY3bMHD9+cXbHjgwtHAnOBjsG+212pcltkSoFLa5aSnNFOm3im7aeXvlE+K1e8kzi0QCc9GIK3DNmuqBFbk+3ytmy/Dn61e2tZYiYJzyOYizHkZOz6mUU4IiqSa9Q4LZJHTDRMKSnlpJtNLhe2u3BASXU2SVw2w5a9QrZbCI5GZytjTxZ1gGYHCUkTk2qvsG5i1MyONwn1fimgeslKoJG1yhw8p8eG1CKVq8CnEXBDaBVBWdWltOnckYZnJ4qZFuJyb1yR3r0av9r50+rFzqRwmZwOh3lNSro0sCRrR4yKxqc2KiJ4Mokym06Glx1WrDGfQUluB67shx6c6sCHM01f3D8GZPYaAmvv1Y0MJWh2KxB5mYA3Nw1npa06JoOTteRqsAzaeDk8ig6SE2efVoJLs0B7ToVcNsyJEOWsmXA6c35+ir/hukUHlgb7TcVFZ3NNDjJe0hwpW5PRcVMDuBSrZwKOJ1UHjmk5Lig2aHBkY25GalDDVxPBjS2HiU4O2GaeTdyrxQVnUd99jcHioqK+kMZC54jPRWCa84FXNmy4KS6ojZLsqsOnQLcQbnOwBhdSCrgCIOzQbgpUOb9FDi7rawsVTZfcG++VmT6GXoAzK2o6Grm0XDJV5GnltZ4KipnlIMkmsFJzRqMklIgsW1RgpuWz0HXMhM4HA/kMT2ImwCHCqfynTzBTQEzM42CB0lob0X9eGGDKr0GBwHODcEtKouogJteFpx0/fYtxEB4mRLc/tRpt1QT/SQanPxJUhzdIr9wkASHcx95KDo/cMIpQMsEHyBuRT+HNiSMvc2qjfC+lQJX6q6paK5ccXBIvd2Wsk2YtijSkYMyfZvVvEWuKQ1OPrVVnOvo1ZMnWV1w2D9jGCDQFKfr+8WAaecvVToH3EkSHDC4yrQiy6YjquDkurukEIDMQwGOIAfjQ1v1suDM0uVsJV9ZVXChfkjreUZ3BgEs6tc1nDUVmV5XH+CNK8C1pHl0OjgiIKokwKkjLPulEKBor0QKW6kc2LJFJY97lOAmEa8BbhQ7atEb0QuA288zrXxzSuBwbGhNK7dcl0tvVwPXK1bAWiL1v1CATQOn27ZVb0mdzHpgfcGdR7hM/K+wwRWdBblJ0fk5ZEkqAeItOqjWphWgwbn29xCZqw3NpCrBSQkJ0a93qYKD43YHUuTQ4DANTn4mt3GpOcZVBId2LWBcRa/0m3buLJJ09odvX3jnwtvx9K7Xv2OLw0G1ufLuMuD0+q1b22j3KlEFJ4YE25YSK8FXDRz1MkpqM+ZxLvpq0NurBI4H4Ph5ZGg7JUnkTFgDv1Ya3QyRjYDYcHFZcIqBTBuedUgDJ4+QiBAsiv4+BS7l+YivApzMwqYHf6RtqSTXSuVxKwMXSwKDe3sngQ3IZCoi9doperkq/y4dVC+lrWbNPnSeBk5HDfJI9VCAm7aWTU9Pl+lTrmqDE66KLhfRqbKYzUSLaKfeXRE4/soHIF/79U5aA6+cp8n105tB4jS4oWWiqkI2aaIvHdxBNcNUgDOD3qWd7GDi4JNjJx/PV68OOOHKc7wudA3z2o4FHp16b16m1n/+jTfOM9RR0XISnH9H2mkzgbNJmZcKOHroQ5yUV4BLGx1Ra+MyD4D0riK4V7afbQhdIbBhcgPzIrlTh05HeS4apTI6l1sCB4OqP30YOAM4eRRWDVwvNYiGQ4gSXPo4G+q3pw1kdqSVg0WnaaorA/f+9ufic1ckbs8Bbd/+K0juPebqqSLTAMOo9B1cBhJc+nBcBnBWYgFIOjgdZSbirHy2gUw8OJkGbr/K54vcVgkcF9y+/QP+/Z0SNaT5D0F8+IAJL8wPmAbe+XX6Ct+oPBoHwPlbcnNVq55cX6MCbpqwJ5s460SDK1G6qtgSpk/W7E8bZJe4rVZUBeC2n/2ljK2pqem55z6cBybXz7DGJAPc1jRwXjn7gKOqUwM4u8VSRs1EA3Conbd3yODIRk6azgPgcDFLhwo4S5s8HodLmeXlSq6t1LyDXeYGwMGSVrO5QwJnw8dqA5cU2zUM7fLlpsvgJwNM7lMGLpT+7XaUnbxJH3SyOFsb12Gm1FamXJTZ02Eug5omRoeIgzrEGeL9HR0HUDl0fJvZYrXasEDVbdJJD3R0pJ1MV9JmttpxSWpt3kF8Rp1L/tCe9IOzi78seSngdoXxNc0Dm3uP2b79MrA4I/vgQ9DoAXaj1EHnSHB+/yVNn7gibasuaUPSl1Vnrair+gAsOV2dfc1OHjojUWtquvrRFd8NBjyYn7j63LUpuBIu/DHguH3nBbr9L8+WABeCFiRsvvnE6HXfL5nrvqbPRyIfM3hxzSfXAbl5RWRt7vKTedzFjDP6T6ziZz79VMTWdLWPjfhuRKau+ZquhI2To2jpJTt1w9f0G2VYjXY6ib6qv7XQwAmfi9bmA7oxxbLv+X47MjLv8wFw4opVNnnD5xtVHHfRKU1yodERf2eB7VgVrm3/4CpzGWHz+d7zGtnP/hhh2YUbvt+GpYVcbPKa7wYyOE7ukA5BaFSfa/3qsC4KnRVCzDWR2x+TLNymBRq28d/dYLwyuNErvv+AnsgJg5LDjh3fMTRznOrlr2c11kECfwjY2w0E7mO4KNobhilIH0MsLR/53AfSXy4W9HqDYmhtmPl9udOQmh5srkybkH7Sxd1ouv4ZAnc9Qqzs9RIPg6/45kEQCXi9XmlX7wwxk4/GzpuPr3M9Hrn+s+lD5ooPg6P2L0jYgKau/ybEBQOIHN4P8vu0tSOtBZbIhW5cZuZxE+f72JsB3HjkD9xIIBBIToInsJsSl9YVElP5BZaPNDQxp6+J4K7BvA2CorEBYgmebw8EJpLgoTfO6biLxRQ46KsVmVfoPJGKTvKDf/LdeDX5+XWfb34EkfKm4GFu7e2zyZuRS5EAoBcYAz750xQ4Z4GC04V0Cd8fYfsUBS3dhNdLkZO4tW/evHlxYWK2HZCL8TruSDHZxiFXLThwOt0f/gu368J132cBLATOy4YZCA5yexZo8+LNxfb2cRBWeYcKuAILDkCCNNsc/1MyEJDRhZlgcCEYCEYmAbfNm2cBupnT7bMxwG2xmAJXCsG1FPB9RvkoH0iRC04EjcjgIpc2zzDMzQlALqaDXVLenxYbPBV/Xu+rXzfB6fzBdlGBQNArhtT29glgcYt/ge46g7ryvIHghg3OX2g9LklcnB3jdQsJCG0z/JGIeL1SaIjMAGYR2Mw9iwrfLTZQBuduHivUmyvxYcAoOMXA8AnDwOb2vyRwiADgZo9CZIjesyAI6xrcBoOBNrgCS35l8WHUmi1GUPicAXEAgQsgi5tlFiFLDA6GzlmHwSCOKYkh1ZO+AKIwNAj69IBRZBGZ2zH4Y2YBx9bAKDOEkpEJ2VXPOZ1OSA5xgx1VT8VMYYITwkZjXySZOAoNTjSt9sWFcDA43jcRmUWvJt99VgwOgzUOBwRnSOVwzWlLzgtDnNeYOBoORxjkqEw7ynZBLysSiSTDMDps3nxpARkcHFO6WFrqcDolbmhzSGWBjZtL4oPsaMIbCE9AcJdu3pxB4Nrx+BvqOUQiyInboUeec5eWO5C3ipGhorJ7vWuwXkoYEaCb0NYuLc5MgLYOgguIGUmSSUKra2+HBsdV1LihyUGJ63/TN4cUigZRUA1MzAC7WgQx9C+gYRPBwfudRcYDKCtGt8KMV3hEk5MNrmW9r3/91IfTkQnUvMHu/MQlxI0NJo9GxiHUQPsI7sUvdQ173OUgPoCIikcwK/+q6bM4nufz7deu5Fi41nkFB6uLGwkCOuHTsyj/ha1Z8mgykeiLMMlx1huG4MRZmtklT81wDQTncCCDa/a3aOlucbHY3NxcNJRPDbhQQzQWE4S8as/xXGhoKNogrHLmxI+5BjmdMAtH3mBz1h5IJJPJhJdlx5mkMWBcwPY209JyqLK8sRyQc4iOWnlSw8cIoS+e2gW0aY7XXAFBuPA8XAB/qi8PwxH4i2/B1uXIkrAmKcDUrNzLD+BB4ODRMOs19k0EBsGn13bW+6sOl5aWQnA4FfFX/jn3Dlfk1tObsJ76W0Rj7R98PCAuhDed0Wx0Ao9WusC8vUJYk5FDIRzA2ALSKDALuhXs0QQb5uNftjbW+5u7GsshuHJscP70XVyZT37rqU2Sdv2d19TDvTNPrIB/Q6O98sKRYjFnNxS7o2sydHi6b2QczQQaiUmbMAPvZ/7X1loArrKSgWG1XDQ4/4ncL3/u6U0p7bqlpfJclNw7YHpTI7g6mRuyOU0H536NEYEfnepLEJNdE3BefzzW2VgHwHmG/cBXJYOrup3zZcQ3UdoV1VD70xeoXRf9Wo7VhWIGSotrOD/CCaHQ4Dj21eACmqpmmdrGuip/s6d+GNkbBOevasmZGxfdRYPTYHLc3AAFzpTpdn/qR7cWk9yKc7/mPNXAjbBGdpJJYoCRrrr6qsoKj+cQsDiphfsy57MJ3yrA/Sj3L24RYvQOKdP7Wowm1EyBM9Ss9cRSfCwWG+tLiveYZo91AYMD4NzDzaLBVVZpSOKE/96UP7iwAtxv5jTUI3SEdlX3WoPjxLAqLvdiGrHBlXZVOaQWriX3sxUQOJ68pyMbZqqQwdWUVnVJ4FrS96lmlMAowN3K/b78fJQGV/SqlrqHWmhX/f3aBAcu9b0WYwS4INONublLPbcdksFpGTR/jwa36YGGi7pziuI2oHbL5owKLdLBYWlNgsPSl91dS9gWeCFlb8FjXX7ADbRw7lL3sOSpnbnd4RJrivbVL7QYzdT8ayS4DzTZjCB4SHLlU2uQAU/VdtbW1nZ3c4KOW+rS4bjAsmz4ZlcV4gYMrtRR60HJb1XLCS1/O455meD2ckhTAsy8QZDrZ7QlwKEhB2Fwi2vRc6htaayF5IbiM13d3UtTyfDI+EhiaoLp9kvcyuVcREtMheKFFLmXT2u7fD56SmrmTP0xrVXnlxyizRUbhrWPL2RXrb++rhGia21thfxau4YPM4eHu0DzBts3xK0c9xqaK6vqO7VWYOHvT6Fk7qmfaEr9kb46g5Pggde1H6vjh4444UJ5Q8WltbC3RdAVqKrD6EQ1NtbV1dcDN5W4wV4DXqFfpSWmYjUIc7e++Oabv+UxqqTjeOHV8+fPXx3La0iNFwYv/vSnx9+NroW9cRUVlYBHPUQnqQ5wq5LdVBpPEj01n8kGfnR0NN90QDgNlOexDboQ0NqsOehEc31+YHWAHRYwNohNNjcHHsH0eEBoqO/c+IIkpDi0JIwOsMPyQ2rNKWxoqgFvUQU+XaDzqUq95cDkoMNCeAgaoIawIW54MhXP0cAwUqiLbWjFS52OUoQOsqtohqqA1GRsTieyPLi3F3pqXddyp/tBHnpBOviHeYjFh7o256GVcBPOGZAbut01NRCepJoUNkPNzYcPGeZQtx8OjNR1Li13vp88/ZRWPf0j6WDp1kRa9G/40B8b8lD6LQVyV9yB/BCgA2bnRvhq4G8xlKIFSi1f792376V7p48xl05UtXSm7ovJc1w0zlO3NvzJJs3aJYN7vkiz1g0cGiWF0/MOlKlJKheNDWXd3ff3QnJ7XnxRCAlD78ZDApyv5Lh4NBZy6VxjZJQtFHCcA8+fOTE7QiI2uARzeK8E7oUXeD4UjYZCPADHw1vKulyuwUIEd1xafo/ZycInFpf83t4Lyb20Zw8A15AKqS5RITI9KRBwxH3fESj6vNI7t3fvhuBewuAkdBI3FzVOVCDgUtvaIKDiSmfqpKnXnf+DwO3LBI4aCi8McHxNMaXb5cUqcn+rBk7mpitAi1uiCTkZgxq4GjVwrpSom/EXBDhOYXCVt9W4FXtUwBHcCrCNO64gNFyvCq7lW5XgUMjghpxKT3Wrguv+bvdeEpx4uMSNo+7qUgDgoqUKQFXqnlrcdV8VnEROoMYnn3xwXIUS0OFKdXDDCnAKcqPUoPQTD47ihrY+u9VjKkhSMoHD5OhB7Scd3CLZnDmYKvDTP6zOrXhiNwaH+qrp4OiB9CcbXMOMg+waFLsPgXg6XKXOreKrvRjcwwdzCnCQHE8PpD/R4AbfguNsiErl8HBti7PYeajGwThUsR1iRHC3IsGjP1CAA+hiCnBPa9f3ZSBzEW4EFMl56vwtw0xnsfO2R81THbdv9iUBOJjHMUE2fIcKq0iFcxuIE3DmyukkXNVQddvvZzzp3NxM0stOPtwNwO37Oskag0xD4YK7C2deymVflSzr8GH43FHhr719+3aX32NA3PrgDfi+g+DuwTvLBRllI0felu/J1t3mCgkclX0cYoYZoMPD3Z1VVS3DhxhmuJ7pgzeVi9yH4NDj8Y9eSPPV0VzAhbhQPBbPbxkCx88BcXkuA+B5OJPPr3gqeKjF3ww3AsqNnOyuFZXl5CuG8mEmgVadHwLg7jOTkOHkaWVCotPlsDaB5+e+2bRr1ze38tiP1cAL4Xf6+0+9Hc9nKxsn6GbOVTTXzwgr3AjHd+J10GgHJQosxRmyXhBP8Y3lWOb+/W8xQ+Mn9158UWFyOVxPVPgCb63Z9fKc1haRm3uzH305h8l0QbvZcKElseV2P7sio+OWWqR1qalJLBWhz6o5htdPT0QiCbTSkE18tScNXPaNPsLp1PK4Xf8Y1LQMgBP+Ka8CNv0iqrHunHDRKc8GnGxYgc3xnXUSOLwiBE/M4H9KdhI4r7QA3cvcS+91Zb96nkp25zRdPp8gVk+bXte6l2uGnAq4uIIoNtsJ93qg8OAuLS+nZgPhP3KOSwYn65NbL72UbnJZr/4WvUFES+U5oZ/qJfRpo66rodYA59/MCUsQnLjoDc7Vi3PPsshZVUMFdfNMdvyTW3A6/w7DUCaXNagqt3Jp2QTHfUb3rzJ8P10G8Uv0qvMv827lov/bCLdlIXIeea1DSuQ0vsPQStza1hhMMl/vu//1A9DcJecaCHLZ1srxpxU7kv6lIa+48wENbkDT1slQFQ1uBfe6m2ltRCZXKa5HohbZiBIJljuGwwQ3kOJ9tAC3TsOcBDdzGF22i+E/Uljcv3LfWKPc5lBk0rR8WrmzxnNUw8G0hlobG/ESVcAOwlNIpgjhHRonPNUbDEpB4ndifMDksoL7x+MDjsl+TAZxnbWIXJXfL68gpCTShOwqjhnVxE7eAeAkdA1ZGyx+TumqWsDRXxJWNHBH084ahaseyfSl4jlouLNRXE9OyS+TxCwBP8/MoBo2b/IBCqwSuew9VcV21U3faqg7/yoN7heaggPXRYM7uZJEbqmru6ursy6lekLkCuCKwQTBC8sYTjIP4dobRA6heyFrpIp8Q4PTsh2LZ6iNvqZJTXExxDhIcM6hFXVYuVHQEelqVBW55LyTJ/aYTyYn+/ompxgmGbn3EiKH0QFl/UCBoUzu/zRd/cJVci9XvyZPBeTuknvyO/Nd8U9IqG1F20C6W5FqW1s7wb9GuC9EJNgyFCM8NDyZnIok+8ZZ9hOQy4noELwXs5v/KJGQ7Pp7ToMpshoe/DzF7fk7GvMJnj+XugtEZWg1dl1yX37Z2trdfXdp6MdDQ0MN0aGhH1/664nu1lZpX02tIBocS/iqkU0+3IfIAXR7EL09ubQbX72M0e16+m9q3+i9rISr+L4jJtOpO9rrGbrrwN/d4Ti5CvaGFN+xY8cYfMDBnggHb86q4y4tdbd2Q3Ktg7qxIErgJoOsvFfaOPkArc1E6DC7PbmE+FD0Furn57MliZuLn+l//vn+d/4p5GExfGjqboXb7Tk5xK315oyhu4Bc4yEIE343hjfJwLERpMQnkBsih9FB5ZYb8fwCSKHVvls5h2N1cIRV2+AAeXQUiHsU93m+dLf7z/jGvwmUgPRFmKORZDLJPLi/dzeaYkXo9mF+K8iNnjg1yP3PETQMB9KQxCTz9W5Je7HdIXz38u/GPMlqkO57wyYe7N6tIId0T8sm80KSMBKE7hp/uJuW5LRfr/cFPr7iB11JQXfn/m5V5ZEiFJiiEWHu/r29ewmj2/fd/e/W+7K+D+LQ5LMwN8fPvdggCAwPbHG9r+l7JI7jXPj3el/Jhja0oQ1taEMb2tCGNrSh1dP/Ay1DBdFZSxkpAAAAAElFTkSuQmCC;" vertex="1" parent="7">
                    <mxGeometry x="440" y="79" width="312" height="161" as="geometry"/>
                </mxCell>
                <mxCell id="16" value="Answer" style="text;html=1;align=center;verticalAlign=middle;resizable=0;points=[];autosize=1;strokeColor=none;fillColor=none;fontSize=12;" vertex="1" parent="1">
                    <mxGeometry x="60" y="345" width="60" height="30" as="geometry"/>
                </mxCell>
            </root>
        </mxGraphModel>
    </diagram>
</mxfile>